<svg version="1.1" id="Layer_1" xmlns="http://www.w3.org/2000/svg" xmlns:xlink="http://www.w3.org/1999/xlink" x="0px" y="0px"
	 width="100%" viewBox="0 0 1254 1254" enable-background="new 0 0 1254 1254" xml:space="preserve">
<path fill="none" opacity="0" stroke="none" 
	d="
M659.000000,1255.000000 
	C439.333344,1255.000000 220.166672,1255.000000 1.000000,1255.000000 
	C1.000000,837.000000 1.000000,419.000000 1.000000,1.000000 
	C419.000000,1.000000 837.000000,1.000000 1255.000000,1.000000 
	C1255.000000,419.000000 1255.000000,837.000000 1255.000000,1255.000000 
	C1056.500000,1255.000000 858.000000,1255.000000 659.000000,1255.000000 
M128.042862,1101.566162 
	C118.707993,1107.681885 109.373131,1113.797607 100.038269,1119.913452 
	C100.183228,1120.237427 100.328194,1120.561401 100.473152,1120.885376 
	C101.077072,1120.885376 101.680992,1120.885254 102.284912,1120.885376 
	C195.446274,1120.909668 288.607666,1120.907471 381.768829,1121.053955 
	C385.535583,1121.059937 386.905121,1119.727417 387.890839,1116.363647 
	C395.697693,1089.723267 403.699860,1063.140259 411.579529,1036.521118 
	C425.167969,990.616699 438.696045,944.694336 452.283905,898.789673 
	C455.902008,886.566284 459.645233,874.379944 463.354004,862.100464 
	C465.431641,862.100464 467.087952,862.100647 468.744263,862.100525 
	C528.574463,862.097107 588.406372,861.810852 648.234253,862.181946 
	C694.005310,862.465881 738.977478,857.121948 783.040283,844.820190 
	C866.840820,821.424194 940.979004,780.818115 1003.164490,719.504150 
	C1040.935059,682.263000 1071.667480,639.815918 1095.291382,592.237427 
	C1114.132080,554.292236 1127.658447,514.510376 1136.728516,473.215668 
	C1145.927002,431.336426 1150.600220,389.048889 1146.210205,346.126373 
	C1140.670654,291.967529 1118.874756,245.585205 1079.352051,207.941360 
	C1050.040771,180.023529 1015.313660,160.998032 977.271973,147.870880 
	C930.667236,131.788895 882.453369,124.802162 833.335205,124.488014 
	C734.344055,123.854904 635.349487,123.721214 536.356079,123.540581 
	C527.560059,123.524529 518.709778,124.255493 509.973053,125.346481 
	C442.197998,133.809769 374.444214,142.443558 306.685089,151.034302 
	C297.875153,152.151260 289.072266,153.323776 278.804688,154.660873 
	C331.910919,176.629807 383.552460,197.992844 435.472351,219.471024 
	C430.784485,236.458130 426.359619,252.639603 421.852814,268.798187 
	C400.849518,344.102905 379.750702,419.381042 358.825104,494.707336 
	C335.551331,578.486511 312.403046,662.300537 289.245514,746.112000 
	C261.466034,846.651184 233.751617,947.208435 205.873459,1047.720215 
	C205.244858,1049.986450 203.410370,1052.434692 201.437546,1053.733398 
	C177.247681,1069.655640 152.926682,1085.378540 128.042862,1101.566162 
z"/>
<path fill="#010101" opacity="1.000000" stroke="none" 
	d="
M128.341263,1101.359619 
	C152.926682,1085.378540 177.247681,1069.655640 201.437546,1053.733398 
	C203.410370,1052.434692 205.244858,1049.986450 205.873459,1047.720215 
	C233.751617,947.208435 261.466034,846.651184 289.245514,746.112000 
	C312.403046,662.300537 335.551331,578.486511 358.825104,494.707336 
	C379.750702,419.381042 400.849518,344.102905 421.852814,268.798187 
	C426.359619,252.639603 430.784485,236.458130 435.472351,219.471024 
	C383.552460,197.992844 331.910919,176.629807 278.804688,154.660873 
	C289.072266,153.323776 297.875153,152.151260 306.685089,151.034302 
	C374.444214,142.443558 442.197998,133.809769 509.973053,125.346481 
	C518.709778,124.255493 527.560059,123.524529 536.356079,123.540581 
	C635.349487,123.721214 734.344055,123.854904 833.335205,124.488014 
	C882.453369,124.802162 930.667236,131.788895 977.271973,147.870880 
	C1015.313660,160.998032 1050.040771,180.023529 1079.352051,207.941360 
	C1118.874756,245.585205 1140.670654,291.967529 1146.210205,346.126373 
	C1150.600220,389.048889 1145.927002,431.336426 1136.728516,473.215668 
	C1127.658447,514.510376 1114.132080,554.292236 1095.291382,592.237427 
	C1071.667480,639.815918 1040.935059,682.263000 1003.164490,719.504150 
	C940.979004,780.818115 866.840820,821.424194 783.040283,844.820190 
	C738.977478,857.121948 694.005310,862.465881 648.234253,862.181946 
	C588.406372,861.810852 528.574463,862.097107 468.744263,862.100525 
	C467.087952,862.100647 465.431641,862.100464 463.354004,862.100464 
	C459.645233,874.379944 455.902008,886.566284 452.283905,898.789673 
	C438.696045,944.694336 425.167969,990.616699 411.579529,1036.521118 
	C403.699860,1063.140259 395.697693,1089.723267 387.890839,1116.363647 
	C386.905121,1119.727417 385.535583,1121.059937 381.768829,1121.053955 
	C288.607666,1120.907471 195.446274,1120.909668 102.284912,1120.885376 
	C101.680992,1120.885254 101.077072,1120.885376 100.473152,1120.885376 
	C100.328194,1120.561401 100.183228,1120.237427 100.038269,1119.913452 
	C109.373131,1113.797607 118.707993,1107.681885 128.341263,1101.359619 
M969.111694,412.504089 
	C968.721497,405.688385 968.623474,398.841217 967.894165,392.062012 
	C962.839172,345.071320 939.195007,312.033875 894.512634,294.983612 
	C868.576660,285.086700 841.403076,282.443146 813.980713,282.194916 
	C755.991028,281.669891 697.997498,281.568878 640.005493,281.304504 
	C638.724060,281.298645 637.442017,281.418732 635.963257,281.489502 
	C592.880432,426.091980 549.868286,570.457336 506.690796,715.377686 
	C508.976837,715.377686 510.455383,715.378479 511.933929,715.377625 
	C539.597168,715.361572 567.261475,715.494934 594.923279,715.290649 
	C628.407349,715.043335 661.965515,715.787109 695.353760,713.793091 
	C742.028625,711.005493 786.036316,697.697327 826.549194,673.912659 
	C866.626526,650.383789 898.216064,618.200684 921.733582,578.264526 
	C951.643555,527.473083 968.171082,472.693207 969.111694,412.504089 
z"/>
<path fill="none" opacity="0" stroke="none" 
	d="
M969.111816,413.002991 
	C968.171082,472.693207 951.643555,527.473083 921.733582,578.264526 
	C898.216064,618.200684 866.626526,650.383789 826.549194,673.912659 
	C786.036316,697.697327 742.028625,711.005493 695.353760,713.793091 
	C661.965515,715.787109 628.407349,715.043335 594.923279,715.290649 
	C567.261475,715.494934 539.597168,715.361572 511.933929,715.377625 
	C510.455383,715.378479 508.976837,715.377686 506.690796,715.377686 
	C549.868286,570.457336 592.880432,426.091980 635.963257,281.489502 
	C637.442017,281.418732 638.724060,281.298645 640.005493,281.304504 
	C697.997498,281.568878 755.991028,281.669891 813.980713,282.194916 
	C841.403076,282.443146 868.576660,285.086700 894.512634,294.983612 
	C939.195007,312.033875 962.839172,345.071320 967.894165,392.062012 
	C968.623474,398.841217 968.721497,405.688385 969.111816,413.002991 
M758.495422,463.129211 
	C759.642944,457.108521 760.790527,451.087830 761.976624,444.864655 
	C773.810791,447.432312 779.241394,454.699493 779.269409,465.939880 
	C789.291321,465.939880 798.877563,465.939880 808.375244,465.939880 
	C812.018127,441.887146 800.509338,428.139893 767.960144,417.234100 
	C769.591431,409.336029 771.228394,401.410339 772.915405,393.242126 
	C764.522766,393.242126 756.601501,393.242126 748.392517,393.242126 
	C746.960388,401.230408 745.564819,409.014862 744.187561,416.696838 
	C726.244080,418.051544 710.445862,423.235443 697.883057,436.102997 
	C673.587830,460.987518 681.010864,496.874023 713.151794,509.609863 
	C717.441406,511.309631 721.882874,512.626221 726.677856,514.265137 
	C723.741638,529.846924 720.860840,545.134399 717.948669,560.588501 
	C704.760620,557.404053 699.617737,548.690247 699.628845,536.808533 
	C689.192688,536.808533 679.296997,536.808533 669.534058,536.808533 
	C665.469543,563.627502 677.910950,578.630554 712.011902,588.687866 
	C710.673828,595.260620 709.329773,601.862671 707.942322,608.677979 
	C716.401306,608.677979 724.311340,608.677979 732.339355,608.677979 
	C733.559448,602.095032 734.733215,595.761658 735.918579,589.365784 
	C738.156860,589.193848 739.976196,589.096863 741.786011,588.908386 
	C757.166626,587.305969 771.410278,582.982727 783.174744,572.261780 
	C809.618347,548.163818 803.062317,509.011719 770.175720,495.499084 
	C764.842346,493.307739 759.274353,491.687317 753.622803,489.736694 
	C755.214905,480.965637 756.758179,472.463684 758.495422,463.129211 
z"/>
<path fill="#050404" opacity="1.000000" stroke="none" 
	d="
M758.398438,463.545471 
	C756.758179,472.463684 755.214905,480.965637 753.622803,489.736694 
	C759.274353,491.687317 764.842346,493.307739 770.175720,495.499084 
	C803.062317,509.011719 809.618347,548.163818 783.174744,572.261780 
	C771.410278,582.982727 757.166626,587.305969 741.786011,588.908386 
	C739.976196,589.096863 738.156860,589.193848 735.918579,589.365784 
	C734.733215,595.761658 733.559448,602.095032 732.339355,608.677979 
	C724.311340,608.677979 716.401306,608.677979 707.942322,608.677979 
	C709.329773,601.862671 710.673828,595.260620 712.011902,588.687866 
	C677.910950,578.630554 665.469543,563.627502 669.534058,536.808533 
	C679.296997,536.808533 689.192688,536.808533 699.628845,536.808533 
	C699.617737,548.690247 704.760620,557.404053 717.948669,560.588501 
	C720.860840,545.134399 723.741638,529.846924 726.677856,514.265137 
	C721.882874,512.626221 717.441406,511.309631 713.151794,509.609863 
	C681.010864,496.874023 673.587830,460.987518 697.883057,436.102997 
	C710.445862,423.235443 726.244080,418.051544 744.187561,416.696838 
	C745.564819,409.014862 746.960388,401.230408 748.392517,393.242126 
	C756.601501,393.242126 764.522766,393.242126 772.915405,393.242126 
	C771.228394,401.410339 769.591431,409.336029 767.960144,417.234100 
	C800.509338,428.139893 812.018127,441.887146 808.375244,465.939880 
	C798.877563,465.939880 789.291321,465.939880 779.269409,465.939880 
	C779.241394,454.699493 773.810791,447.432312 761.976624,444.864655 
	C760.790527,451.087830 759.642944,457.108521 758.398438,463.545471 
M742.184998,550.559753 
	C741.591675,554.205688 740.998413,557.851562 740.368713,561.721313 
	C757.521790,559.183105 766.938965,550.555847 766.822144,538.113464 
	C766.737671,529.113403 759.145752,521.977112 747.653564,520.389282 
	C745.880676,530.152893 744.104309,539.935486 742.184998,550.559753 
M725.183594,449.552826 
	C718.420959,454.693420 714.709351,461.365662 716.457703,469.917419 
	C718.139282,478.143036 724.855652,481.244965 732.595886,483.837982 
	C735.015686,470.700500 737.375244,457.889709 740.032715,443.461731 
	C734.491821,445.669128 730.139832,447.402893 725.183594,449.552826 
z"/>
<path fill="none" opacity="0" stroke="none" 
	d="
M742.256470,550.138916 
	C744.104309,539.935486 745.880676,530.152893 747.653564,520.389282 
	C759.145752,521.977112 766.737671,529.113403 766.822144,538.113464 
	C766.938965,550.555847 757.521790,559.183105 740.368713,561.721313 
	C740.998413,557.851562 741.591675,554.205688 742.256470,550.138916 
z"/>
<path fill="none" opacity="0" stroke="none" 
	d="
M725.485718,449.344727 
	C730.139832,447.402893 734.491821,445.669128 740.032715,443.461731 
	C737.375244,457.889709 735.015686,470.700500 732.595886,483.837982 
	C724.855652,481.244965 718.139282,478.143036 716.457703,469.917419 
	C714.709351,461.365662 718.420959,454.693420 725.485718,449.344727 
z"/>
</svg>